<svg width="70" height="70" viewBox="0 0 70 70" fill="none" xmlns="http://www.w3.org/2000/svg">
<path d="M32.9448 15.7771C33.3888 16.285 34.1447 16.3345 34.6367 15.8762C35.1287 15.418 35.1767 14.6376 34.7327 14.1298C34.6247 13.9936 33.5688 12.8169 31.7449 12.0737C30.0291 11.3801 27.2933 10.9466 24.0296 12.916C19.3619 15.7152 15.3302 13.2009 14.9823 12.9655C14.7423 12.7797 13.7224 12.0737 12.3065 11.826C10.8186 11.5783 8.62278 11.7889 6.58295 14.2289C3.85916 17.4988 2.95924 18.6507 2.75525 18.9108C2.41928 19.2824 0.9194 21.0412 1.00339 23.2954C1.03939 24.3359 1.39936 25.302 2.07131 26.1938C2.1313 26.3176 2.2153 26.4415 2.32329 26.553L2.57527 26.7883C2.74325 26.9617 2.92324 27.1351 3.11522 27.2961L8.83877 32.7583L10.5426 30.9995L4.23114 24.9923C3.70318 24.4226 3.4272 23.828 3.4032 23.2087C3.34321 21.8215 4.49511 20.6201 4.49511 20.6077L4.55511 20.5458L4.60311 20.4838C4.6151 20.4714 5.37104 19.4806 8.3828 15.8515C10.7826 12.9655 13.2784 14.7491 13.5544 14.9597L13.6144 15.0092C13.7584 15.1083 16.1342 16.7061 19.4819 16.7061C21.1978 16.7061 23.1656 16.2974 25.2175 15.0588C27.1373 13.9069 29.0092 13.6591 30.761 14.3404C32.1169 14.8606 32.9208 15.7524 32.9448 15.7771ZM40.9962 24.7322C41.6801 24.7322 42.2321 24.1625 42.2321 23.4565C42.2321 22.7505 41.6801 22.1807 40.9962 22.1807C40.3122 22.1807 39.7603 22.7505 39.7603 23.4565C39.7603 24.1625 40.3122 24.7322 40.9962 24.7322ZM61.2746 41.2923C61.2266 39.9794 60.6866 38.7655 59.7507 37.8861L54.0271 32.4239C51.0754 29.6123 47.2117 26.6025 44.4879 24.5588C43.948 24.1625 43.204 24.2863 42.808 24.8437C42.4241 25.4011 42.5441 26.169 43.084 26.5777C45.7598 28.5719 49.5395 31.5197 52.4073 34.2447L58.1188 39.7069C58.5748 40.1528 58.8508 40.7473 58.8748 41.3914C58.8988 42.0354 58.6828 42.6547 58.2508 43.1378C57.3749 44.1163 55.875 44.1782 54.9271 43.274L45.6398 34.4181C45.1479 33.9598 44.3919 33.9845 43.948 34.4924C43.492 35.0002 43.528 35.7805 44.02 36.2388L44.3799 36.5856C44.4159 36.6351 44.4639 36.6847 44.5119 36.7342L53.9432 45.7512C54.3991 46.1971 54.6751 46.7917 54.6991 47.4357C54.7231 48.0798 54.5071 48.6991 54.0751 49.1821C53.1992 50.1606 51.6993 50.2226 50.7514 49.3184L49.8875 48.4885C49.7795 48.3647 49.6595 48.2408 49.5395 48.117L42.2561 41.1808L41.3202 40.289C40.8282 39.8183 40.0723 39.8555 39.6283 40.3509C39.4243 40.5739 39.3283 40.8464 39.3163 41.1313C39.3163 41.1436 39.3163 41.156 39.3163 41.1684C39.3163 41.1932 39.3163 41.218 39.3163 41.2427C39.3283 41.5648 39.4603 41.8744 39.7003 42.1098L40.6482 43.0139L48.1356 50.173C48.8676 51.102 48.8556 52.4768 48.0396 53.381L48.0156 53.4058C47.5837 53.8888 46.9957 54.1613 46.3718 54.1861C45.7358 54.2109 45.1359 53.9755 44.6679 53.542L40.6002 49.7024C40.5402 49.628 40.4682 49.5661 40.3962 49.4918L36.4006 45.6769C35.9086 45.2062 35.1527 45.2434 34.7087 45.7512C34.3367 46.16 34.2887 46.7669 34.5527 47.2252C34.6127 47.349 34.6967 47.4605 34.8047 47.5596L38.8964 51.4488C39.7243 52.3777 39.7363 53.8145 38.8964 54.7558L38.8844 54.7682C38.4524 55.2513 37.8764 55.5238 37.2405 55.5485C36.6045 55.5733 36.0046 55.3504 35.5486 54.9045L30.737 50.3093C30.581 50.8543 30.2931 51.3745 29.8731 51.808L29.3451 52.353L33.9168 56.7252C34.8047 57.5675 35.9446 58.0257 37.1445 58.0257C37.2045 58.0257 37.2765 58.0257 37.3365 58.0257C38.6084 57.9762 39.7843 57.4188 40.6482 56.4527L40.6602 56.4403C41.2482 55.7963 41.6201 55.0159 41.8001 54.2109L43.024 55.3751C43.936 56.2545 45.0999 56.6757 46.2638 56.6757C47.5477 56.6757 48.8316 56.1431 49.7675 55.1026L49.7915 55.0779C50.5114 54.2728 50.9314 53.2695 51.0274 52.2539C51.4474 52.3777 51.8793 52.4397 52.3233 52.4397C52.3833 52.4397 52.4553 52.4397 52.5153 52.4397C53.7872 52.3901 54.9631 51.8327 55.815 50.8666C56.9309 49.6157 57.3029 47.9188 56.9429 46.3705C58.0708 46.2591 59.1747 45.7388 60.0027 44.8099C60.8786 43.8562 61.3226 42.6052 61.2746 41.2923Z" fill="#373744"/>
<path d="M27.6532 44.4634C27.9652 42.9152 27.5452 41.2555 26.3933 40.054C25.6493 39.2861 24.7134 38.8278 23.7415 38.6916C23.8735 38.2333 23.9455 37.7502 23.9455 37.2548C23.9455 35.9667 23.4535 34.7528 22.5776 33.8487C21.6897 32.9321 20.5257 32.4367 19.2778 32.4367C18.8099 32.4367 18.3419 32.511 17.898 32.6472C17.778 31.6192 17.334 30.6283 16.5661 29.848C14.7422 27.9653 11.7784 27.9653 9.95459 29.848L5.40695 34.5423C3.5831 36.4249 3.5831 39.4843 5.40695 41.3669C6.00691 41.9862 6.73885 42.4074 7.50679 42.6179C6.84684 43.4726 6.48687 44.5254 6.48687 45.6277C6.48687 46.9159 6.97883 48.1297 7.85476 49.0339C8.76669 49.9752 9.96659 50.4459 11.1545 50.4459C12.1744 50.4459 13.1823 50.1114 14.0223 49.4302C14.2262 50.2105 14.6222 50.9537 15.2222 51.5606C16.1341 52.5019 17.334 52.9726 18.5219 52.9726C19.3258 52.9726 20.1298 52.762 20.8497 52.3285C21.0297 53.2327 21.4737 54.0626 22.1216 54.7314C23.0335 55.6728 24.2335 56.1434 25.4214 56.1434C26.6213 56.1434 27.8092 55.6728 28.7211 54.7314L30.7129 52.6753C31.6009 51.7588 32.0808 50.5573 32.0808 49.2692C32.0808 47.9811 31.5889 46.7672 30.7129 45.8631C29.873 44.9836 28.7691 44.513 27.6532 44.4634ZM7.09882 39.6081C6.21089 38.6916 6.21089 37.2053 7.09882 36.2887L11.6465 31.5944C12.0904 31.1361 12.6664 30.9132 13.2543 30.9132C13.8423 30.9132 14.4182 31.1361 14.8622 31.5944C15.7501 32.511 15.7501 33.9973 14.8622 34.9138L10.3146 39.6081C9.42663 40.5247 7.98675 40.5247 7.09882 39.6081ZM12.7624 47.2874C11.8744 48.204 10.4346 48.204 9.54662 47.2874C8.65869 46.3709 8.65869 44.8846 9.54662 43.968L17.658 35.5951C18.5459 34.6785 19.9858 34.6785 20.8737 35.5951C21.3057 36.041 21.5337 36.6231 21.5337 37.2548C21.5337 37.8865 21.2937 38.4686 20.8737 38.9145L12.7624 47.2874ZM20.1418 49.8142C19.2538 50.7307 17.814 50.7307 16.926 49.8142C16.0381 48.8976 16.0381 47.4113 16.926 46.4947L21.4737 41.8005C21.9176 41.3422 22.4936 41.1192 23.0815 41.1192C23.6695 41.1192 24.2454 41.3422 24.6894 41.8005C25.5773 42.717 25.5773 44.2033 24.6894 45.1199L20.1418 49.8142ZM29.0331 50.9289L27.0412 52.9974C26.1533 53.9139 24.7134 53.9139 23.8255 52.9974C23.3935 52.5515 23.1655 51.9693 23.1655 51.3377C23.1655 50.706 23.4055 50.1238 23.8255 49.6779L25.8173 47.6219C26.2613 47.1636 26.8372 46.9406 27.4252 46.9406C28.0131 46.9406 28.5891 47.1636 29.0331 47.6219C29.465 48.0678 29.693 48.6499 29.693 49.2816C29.693 49.9133 29.465 50.4954 29.0331 50.9289ZM68.6059 21.2769C68.3299 19.9392 67.646 18.9855 67.49 18.7873L63.7583 13.6223C62.0184 11.1451 59.9426 10.8603 58.5147 11.0461C57.1348 11.2318 56.1149 11.9007 55.9109 12.0493L52.8272 14.0682C49.2395 16.4587 46.6237 14.96 43 12.904C38.7043 10.4515 35.7405 12.3342 35.6085 12.4085L28.9971 17.0904L28.9131 17.1771C26.9452 19.2084 26.9452 22.5155 28.9131 24.5468C30.8689 26.5657 34.0367 26.5781 36.0045 24.5963L37.5764 23.2586C38.0923 22.8251 38.1523 22.0448 37.7324 21.5122C37.3124 20.9796 36.5565 20.9177 36.0405 21.3512L34.4326 22.726L34.3486 22.8004C33.3167 23.8656 31.6369 23.8656 30.6049 22.8004C30.101 22.2801 29.825 21.5989 29.825 20.8681C29.825 20.1745 30.077 19.5181 30.5329 19.0102L36.8804 14.5141C37.0844 14.3903 38.9443 13.4366 41.8241 15.0839C43.7439 16.1862 45.5678 17.2143 47.5236 17.623C49.7914 18.0937 51.9392 17.6106 54.0991 16.1739L57.1948 14.1426L57.2428 14.1178C57.2548 14.1178 57.9628 13.61 58.8867 13.5109C60.0146 13.387 60.9745 13.9072 61.8145 15.0963L65.5822 20.286L65.6062 20.3232C65.6062 20.3355 66.1101 20.992 66.2661 21.859C66.4581 22.9118 66.0861 23.8408 65.1022 24.683L65.0782 24.7078L55.611 33.9354L57.3748 35.6198L66.6741 26.5657C68.3299 25.1289 69.0139 23.2463 68.6059 21.2769Z" fill="#373744"/>
</svg>
