<svg width="70" height="70" viewBox="0 0 70 70" fill="none" xmlns="http://www.w3.org/2000/svg">
<path d="M48.8202 41.9683L47.6016 44.0908L60.4782 51.4839L61.6968 49.3614L48.8202 41.9683Z" fill="#373744"/>
<path d="M20.5889 41.9075L7.61328 49.3574L8.83192 51.4799L21.8076 44.03L20.5889 41.9075Z" fill="#373744"/>
<path d="M34.6573 67L7 51.1235V19.8765L34.6573 4L62.3147 19.8765V51.1235L34.6573 67ZM9.44755 49.704L34.6573 64.1772L59.8671 49.704V21.296L34.6573 6.82284L9.44755 21.296V49.704Z" fill="#373744"/>
<path d="M35.8811 5.90088H33.4336V20.423H35.8811V5.90088Z" fill="#373744"/>
<path d="M34.6608 51.8332C25.6619 51.8332 18.3438 44.5151 18.3438 35.5162C18.3438 26.5174 25.6619 19.1992 34.6608 19.1992C43.6596 19.1992 50.9778 26.5174 50.9778 35.5162C50.9778 44.5151 43.6596 51.8332 34.6608 51.8332ZM34.6608 21.6468C27.0162 21.6468 20.7913 27.8717 20.7913 35.5162C20.7913 43.1608 27.0162 49.3857 34.6608 49.3857C42.3053 49.3857 48.5302 43.1608 48.5302 35.5162C48.5302 27.8717 42.3053 21.6468 34.6608 21.6468Z" fill="#373744"/>
<path d="M34.6587 37.1722L7.61328 21.6466L8.83706 19.5254L34.6587 34.3494L60.4804 19.5254L61.696 21.6466L34.6587 37.1722Z" fill="#373744"/>
<path d="M35.8811 35.6309H33.4336V65.5889H35.8811V35.6309Z" fill="#373744"/>
</svg>
