<svg width="357" height="222" viewBox="0 0 357 222" fill="none" xmlns="http://www.w3.org/2000/svg">
<path d="M290.332 64.9366L290.156 87.8142" stroke="#373744" stroke-width="2.68811" stroke-miterlimit="10" stroke-linecap="round" stroke-linejoin="round"/>
<path d="M278.707 82.7107L290.158 87.8142" stroke="#373744" stroke-width="2.68811" stroke-miterlimit="10" stroke-linecap="round" stroke-linejoin="round"/>
<path d="M278.707 82.7107L290.246 77.8712" stroke="#373744" stroke-width="2.68811" stroke-miterlimit="10" stroke-linecap="round" stroke-linejoin="round"/>
<path d="M278.707 82.7107L290.334 64.9366" stroke="#373744" stroke-width="2.68811" stroke-miterlimit="10" stroke-linecap="round" stroke-linejoin="round"/>
<path d="M301.607 82.8867L290.156 87.8142" stroke="#373744" stroke-width="2.68811" stroke-miterlimit="10" stroke-linecap="round" stroke-linejoin="round"/>
<path d="M290.068 91.4218L278.617 86.4064L289.98 104.532L290.068 91.4218Z" stroke="#373744" stroke-width="2.68811" stroke-miterlimit="10" stroke-linecap="round" stroke-linejoin="round"/>
<path d="M290.068 91.4218L278.617 86.4064L289.98 104.532" stroke="#373744" stroke-width="2.68811" stroke-miterlimit="10" stroke-linecap="round" stroke-linejoin="round"/>
<path d="M290.065 91.4219L301.604 86.5824L289.977 104.532" stroke="#373744" stroke-width="2.68811" stroke-miterlimit="10" stroke-linecap="round" stroke-linejoin="round"/>
<path d="M301.605 82.8867L290.242 77.8712" stroke="#373744" stroke-width="2.68811" stroke-miterlimit="10" stroke-linecap="round" stroke-linejoin="round"/>
<path d="M301.607 82.8867L290.332 64.9366" stroke="#373744" stroke-width="2.68811" stroke-miterlimit="10" stroke-linecap="round" stroke-linejoin="round"/>
<path d="M84.2964 46.8108H82.7109" stroke="#373744" stroke-width="2.68811" stroke-miterlimit="10" stroke-linecap="round" stroke-linejoin="round"/>
<path d="M78.5699 46.8108H76.9844" stroke="#373744" stroke-width="2.68811" stroke-miterlimit="10" stroke-linecap="round" stroke-linejoin="round"/>
<path d="M80.6836 43.1152V44.7871" stroke="#373744" stroke-width="2.68811" stroke-miterlimit="10" stroke-linecap="round" stroke-linejoin="round"/>
<path d="M80.6836 48.9226V50.5064" stroke="#373744" stroke-width="2.68811" stroke-miterlimit="10" stroke-linecap="round" stroke-linejoin="round"/>
<path d="M320.092 100.573C321.746 100.573 323.087 99.2335 323.087 97.5813C323.087 95.929 321.746 94.5896 320.092 94.5896C318.438 94.5896 317.098 95.929 317.098 97.5813C317.098 99.2335 318.438 100.573 320.092 100.573Z" stroke="#373744" stroke-width="2.68811" stroke-miterlimit="10" stroke-linecap="round" stroke-linejoin="round"/>
<path d="M200.829 220.68L194.398 214.257" stroke="#373744" stroke-width="2.68811" stroke-miterlimit="10" stroke-linecap="round" stroke-linejoin="round"/>
<path d="M200.829 214.257L194.398 220.68" stroke="#373744" stroke-width="2.68811" stroke-miterlimit="10" stroke-linecap="round" stroke-linejoin="round"/>
<path d="M230.955 122.042H315.338C317.981 122.042 320.095 124.154 320.095 126.794V187.947C320.095 190.587 317.981 192.699 315.338 192.699H199.069C196.426 192.699 194.312 190.587 194.312 187.947V185.924" stroke="#373744" stroke-width="2.68811" stroke-miterlimit="10" stroke-linecap="round" stroke-linejoin="round"/>
<path d="M248.656 168.414V146.328C248.656 145.976 249.097 145.712 249.449 145.888L265.656 156.975C265.921 157.151 265.921 157.591 265.656 157.767L249.449 168.854C249.097 169.03 248.656 168.766 248.656 168.414Z" stroke="#373744" stroke-width="2.68811" stroke-miterlimit="10" stroke-linecap="round" stroke-linejoin="round"/>
<path d="M111.774 58.1613C103.142 54.1138 97.1523 45.3147 97.1523 35.1078C97.1523 21.0293 108.603 9.59058 122.696 9.59058C136.79 9.59058 148.24 21.0293 148.24 35.1078C148.24 38.3635 147.624 41.4431 146.567 44.2588" stroke="#373744" stroke-width="2.68811" stroke-miterlimit="10" stroke-linecap="round" stroke-linejoin="round"/>
<path d="M132.559 47.6026C130.533 47.6026 128.859 45.9308 128.859 43.907V31.9403H135.201C135.73 31.9403 136.17 32.3803 136.17 32.9082V43.995C136.258 46.0188 134.585 47.6026 132.559 47.6026Z" stroke="#373744" stroke-width="2.68811" stroke-miterlimit="10" stroke-linecap="round" stroke-linejoin="round"/>
<path d="M128.951 43.9951V28.5088V28.3328V24.3732C128.951 23.4053 128.159 22.6134 127.19 22.6134H110.894C109.926 22.6134 109.133 23.4053 109.133 24.3732V44.611C109.133 46.2828 110.454 47.6027 112.128 47.6027H132.563C130.537 47.6027 128.951 46.0189 128.951 43.9951Z" stroke="#373744" stroke-width="2.68811" stroke-miterlimit="10" stroke-linecap="round" stroke-linejoin="round"/>
<path d="M113.008 26.7489H125.163" stroke="#373744" stroke-width="2.68811" stroke-miterlimit="10" stroke-linecap="round" stroke-linejoin="round"/>
<path d="M113.008 30.3566H125.163" stroke="#373744" stroke-width="2.68811" stroke-miterlimit="10" stroke-linecap="round" stroke-linejoin="round"/>
<path d="M113.004 35.1962H115.47" stroke="#373744" stroke-width="2.68811" stroke-miterlimit="10" stroke-linecap="round" stroke-linejoin="round"/>
<path d="M113.004 38.8038H115.47" stroke="#373744" stroke-width="2.68811" stroke-miterlimit="10" stroke-linecap="round" stroke-linejoin="round"/>
<path d="M113.008 43.7311H125.163" stroke="#373744" stroke-width="2.68811" stroke-miterlimit="10" stroke-linecap="round" stroke-linejoin="round"/>
<path d="M125.164 33.9642H119.086V40.0356H125.164V33.9642Z" stroke="#373744" stroke-width="2.68811" stroke-miterlimit="10" stroke-linecap="round" stroke-linejoin="round"/>
<path d="M94.6016 104.268L110.368 106.644" stroke="#373744" stroke-width="2.68811" stroke-miterlimit="10" stroke-linecap="round" stroke-linejoin="round"/>
<path d="M135.914 56.1376L99.9763 59.3052C98.6551 59.3932 97.51 60.0971 96.8053 61.241L86.6758 76.2874" stroke="#373744" stroke-width="2.68811" stroke-miterlimit="10" stroke-linecap="round" stroke-linejoin="round"/>
<path d="M215.806 135.857L212.635 171.757C212.547 173.077 211.842 174.221 210.697 174.925L176.873 197.45C174.231 199.21 170.707 197.626 170.267 194.547L165.246 161.374" stroke="#373744" stroke-width="2.68811" stroke-miterlimit="10" stroke-linecap="round" stroke-linejoin="round"/>
<path d="M111.951 124.066C110.277 122.395 109.308 120.195 109.396 117.819C110.013 93.2698 149.562 -9.94307 270.147 1.84766C281.863 122.307 178.541 161.814 153.966 162.43C151.588 162.518 149.386 161.55 147.712 159.879L111.951 124.066Z" stroke="#373744" stroke-width="2.68811" stroke-miterlimit="10" stroke-linecap="round" stroke-linejoin="round"/>
<path d="M211.221 85.1745C224.745 85.1745 235.708 74.2228 235.708 60.7132C235.708 47.2036 224.745 36.2518 211.221 36.2518C197.698 36.2518 186.734 47.2036 186.734 60.7132C186.734 74.2228 197.698 85.1745 211.221 85.1745Z" stroke="#373744" stroke-width="2.68811" stroke-miterlimit="10" stroke-linecap="round" stroke-linejoin="round"/>
<path d="M118.027 88.0784L183.825 153.807" stroke="#373744" stroke-width="2.68811" stroke-miterlimit="10" stroke-linecap="round" stroke-linejoin="round"/>
<path d="M94.7798 142.192L75.7539 161.286" stroke="#373744" stroke-width="2.68811" stroke-miterlimit="10" stroke-linecap="round" stroke-linejoin="round"/>
<path d="M132.217 178.444L112.574 198.066" stroke="#373744" stroke-width="2.68811" stroke-miterlimit="10" stroke-linecap="round" stroke-linejoin="round"/>
<path d="M113.807 160.054L75.8438 197.978" stroke="#373744" stroke-width="2.68811" stroke-miterlimit="10" stroke-linecap="round" stroke-linejoin="round"/>
<path d="M56.8956 137.881C77.911 137.881 94.9474 120.862 94.9474 99.8689C94.9474 78.8756 77.911 61.8571 56.8956 61.8571C35.8801 61.8571 18.8438 78.8756 18.8438 99.8689C18.8438 120.862 35.8801 137.881 56.8956 137.881Z" stroke="#373744" stroke-width="2.68811" stroke-miterlimit="10" stroke-linecap="round" stroke-linejoin="round"/>
<path d="M43.6875 112.188L49.0606 121.603C49.501 122.395 50.2937 122.834 51.1745 122.834C51.615 122.834 52.0554 122.746 52.4077 122.482C52.9362 122.131 53.3766 121.603 53.5528 120.987C53.729 120.371 53.6409 119.667 53.2885 119.139L47.9155 109.724L43.6875 112.188Z" stroke="#373744" stroke-width="2.68811" stroke-miterlimit="10" stroke-linecap="round" stroke-linejoin="round"/>
<path d="M36.2015 103.565C34.4398 104.533 33.3828 106.468 33.3828 108.404C33.3828 109.372 33.6471 110.34 34.0875 111.22C35.0564 112.98 36.9061 114.036 38.932 114.036C39.9009 114.036 40.8699 113.772 41.7507 113.244L50.2066 108.316L44.6574 98.6372L36.2015 103.565Z" stroke="#373744" stroke-width="2.68811" stroke-miterlimit="10" stroke-linecap="round" stroke-linejoin="round"/>
<path d="M47.9141 109.724L49.1472 111.836C49.2353 111.924 49.3234 112.012 49.4115 112.012C49.4995 112.012 49.4996 112.012 49.5876 111.924L51.4374 110.868C51.5255 110.78 51.6135 110.78 51.6135 110.692C51.6135 110.604 51.6135 110.516 51.6135 110.428L50.3804 108.316L47.9141 109.724Z" stroke="#373744" stroke-width="2.68811" stroke-miterlimit="10" stroke-linecap="round" stroke-linejoin="round"/>
<path d="M44.7422 98.7251L50.2914 108.316L68.965 105.5L56.0168 83.2388L44.7422 98.7251Z" stroke="#373744" stroke-width="2.68811" stroke-miterlimit="10" stroke-linecap="round" stroke-linejoin="round"/>
<path d="M58.3075 81.127C58.0433 81.127 57.5148 81.2149 57.1625 81.8309L56.1055 83.2387L69.0537 105.5C69.0537 105.5 71.4319 105.148 71.7842 104.444C72.0485 104.004 72.0485 103.477 71.7842 103.037L59.4526 81.8309C59.1003 81.2149 58.5718 81.127 58.3075 81.127Z" stroke="#373744" stroke-width="2.68811" stroke-miterlimit="10" stroke-linecap="round" stroke-linejoin="round"/>
<path d="M66.9458 89.574L64.0391 89.75L67.122 95.0294L68.7075 92.5656C68.7955 92.4777 68.7955 92.3017 68.7075 92.2137L67.21 89.662C67.21 89.662 67.122 89.574 66.9458 89.574Z" stroke="#373744" stroke-width="2.68811" stroke-miterlimit="10" stroke-linecap="round" stroke-linejoin="round"/>
<path d="M79.1882 83.9425C79.4524 83.9425 79.7167 84.1185 79.8048 84.2945C79.8929 84.4705 79.8928 84.6465 79.8928 84.8225C79.8048 84.9984 79.7167 85.1744 79.5405 85.2624L73.639 88.518C73.5509 88.606 73.4628 88.606 73.2866 88.606C73.0224 88.606 72.7581 88.4301 72.6701 88.2541C72.582 88.0781 72.582 87.9021 72.582 87.7261C72.6701 87.5502 72.7581 87.3742 72.9343 87.2862L78.8359 84.0305C78.9239 83.9425 79.1001 83.9425 79.1882 83.9425ZM79.1882 82.1827C78.7478 82.1827 78.3954 82.2707 77.955 82.5347L72.0535 85.7903C71.525 86.0543 71.0846 86.5823 70.9084 87.1982V87.2862C70.7322 87.9021 70.8203 88.518 71.1726 89.046C71.6131 89.8379 72.4058 90.3658 73.3747 90.3658C73.8151 90.3658 74.2555 90.2779 74.6079 90.0139L80.4214 86.7582C80.9499 86.4943 81.3903 85.9663 81.5664 85.3504V85.2624C81.7426 84.6465 81.6545 84.0305 81.3022 83.5026C80.9499 82.6227 80.069 82.1827 79.1882 82.1827Z" fill="#373744"/>
<path d="M73.7237 93.7977C73.8117 93.7977 73.8117 93.7977 73.8998 93.7977L77.9516 94.8535C78.1278 94.9415 78.304 95.0295 78.3921 95.2055C78.4801 95.3815 78.4801 95.5575 78.4801 95.7334C78.3921 96.0854 78.1278 96.2614 77.7755 96.2614C77.6874 96.2614 77.6874 96.2614 77.5993 96.2614L73.5475 95.2055C73.1952 95.1175 72.9309 94.6776 73.019 94.3256C73.1071 94.0616 73.4594 93.7977 73.7237 93.7977ZM73.7237 92.0378C72.5786 92.0378 71.6097 92.8298 71.3454 93.8856C70.9931 95.2055 71.7858 96.5254 73.1071 96.8773L77.1589 97.9332H77.247C77.3351 97.9332 77.5112 98.0212 77.7755 98.0212C78.8325 98.0212 79.8895 97.3173 80.1537 96.1734C80.3299 95.5575 80.2418 94.9415 79.9775 94.3256C79.6252 93.7097 79.0967 93.3577 78.4801 93.1817L74.4283 92.1258H74.3402C74.1641 92.1258 73.9879 92.0378 73.7237 92.0378Z" fill="#373744"/>
<path d="M68.8766 79.4551C68.9646 79.4551 68.9646 79.4551 69.0527 79.4551C69.4051 79.5431 69.6693 79.9831 69.5812 80.335L68.5242 84.3826C68.4361 84.7346 68.1719 84.9105 67.8196 84.9105C67.7315 84.9105 67.7315 84.9105 67.6434 84.9105C67.2911 84.8225 67.0268 84.3826 67.1149 84.0306L68.1719 79.9831C68.26 79.6311 68.5242 79.4551 68.8766 79.4551ZM68.8766 77.6953C67.7315 77.6953 66.7626 78.4872 66.4983 79.5431L65.3532 83.5907C65.0009 84.9105 65.7937 86.2304 67.1149 86.5824H67.203C67.3791 86.5824 67.5553 86.6703 67.7315 86.6703C68.7885 86.6703 69.8455 85.9664 70.1097 84.8225L71.1667 80.687C71.519 79.3671 70.7263 78.0473 69.4051 77.6953H69.317C69.2289 77.6953 69.0527 77.6953 68.8766 77.6953Z" fill="#373744"/>
<path d="M32.3286 171.053H45.9814C49.3286 171.053 51.971 173.781 51.971 177.037C51.971 180.38 49.2405 183.02 45.9814 183.02H27.6602" stroke="#373744" stroke-width="2.68811" stroke-miterlimit="10" stroke-linecap="round" stroke-linejoin="round"/>
<path d="M27.6602 159.087H43.5151C46.8622 159.087 49.5047 161.814 49.5047 165.07C49.5047 168.414 46.7741 171.053 43.5151 171.053H32.3286" stroke="#373744" stroke-width="2.68811" stroke-miterlimit="10" stroke-linecap="round" stroke-linejoin="round"/>
<path d="M32.3281 154.423V187.771" stroke="#373744" stroke-width="2.68811" stroke-miterlimit="10" stroke-linecap="round" stroke-linejoin="round"/>
<path d="M39.8164 183.108V187.771" stroke="#373744" stroke-width="2.68811" stroke-miterlimit="10" stroke-linecap="round" stroke-linejoin="round"/>
<path d="M39.8164 154.335V159.087" stroke="#373744" stroke-width="2.68811" stroke-miterlimit="10" stroke-linecap="round" stroke-linejoin="round"/>
<path d="M356.12 215.489L351.364 219.536C348.897 221.648 344.846 221.648 342.467 219.536L337.711 215.489C335.245 213.377 331.193 213.377 328.815 215.489L324.058 219.536C321.592 221.648 317.54 221.648 315.162 219.536L310.405 215.489C307.939 213.377 303.887 213.377 301.509 215.489L296.752 219.536C294.286 221.648 290.234 221.648 287.856 219.536L283.1 215.489C280.281 213.113 276.934 213.113 274.203 215.489" stroke="#373744" stroke-width="2.68811" stroke-miterlimit="10" stroke-linecap="round" stroke-linejoin="round"/>
<path d="M83.2374 20.6776L78.4809 24.7251C76.0146 26.8369 71.9628 26.8369 69.5846 24.7251L64.8281 20.6776C62.3618 18.5658 58.31 18.5658 55.9317 20.6776L51.1752 24.7251C48.7089 26.8369 44.6571 26.8369 42.2789 24.7251L37.5224 20.6776C35.0561 18.5658 31.0043 18.5658 28.626 20.6776L23.8695 24.7251C21.4032 26.8369 17.3514 26.8369 14.9732 24.7251L10.2167 20.6776C7.39803 18.3018 4.05088 18.3018 1.32031 20.6776" stroke="#373744" stroke-width="2.68811" stroke-miterlimit="10" stroke-linecap="round" stroke-linejoin="round"/>
</svg>
