<svg width="70" height="70" viewBox="0 0 70 70" fill="none" xmlns="http://www.w3.org/2000/svg">
<path d="M34.865 65.1979C34.61 65.1979 34.355 65.1739 34.1121 65.1259C33.9299 65.0899 33.7599 65.042 33.5899 64.982C27.7002 62.9554 22.8305 60.1134 19.1145 56.5279C15.86 53.3981 13.3827 49.5848 11.7433 45.1959C8.75588 37.1735 8.92589 28.2757 9.05947 21.1287V21.0208C9.08376 20.4212 9.10805 19.7976 9.12019 19.1021C9.16877 16.0323 11.634 13.4901 14.7549 13.3222C22.0533 12.9145 27.7123 10.5641 32.5456 5.91136L32.582 5.87539C33.2013 5.31178 34.0149 5 34.865 5C35.7151 5 36.5287 5.31178 37.1602 5.88738L37.1966 5.92335C42.0298 10.5761 47.6767 12.9265 54.9873 13.3342C58.0961 13.502 60.5734 16.0443 60.622 19.1141C60.6341 19.8216 60.6463 20.4572 60.6827 21.0448V21.0807C60.8163 28.2397 60.9863 37.1495 57.9868 45.1959C56.3474 49.5848 53.87 53.3981 50.6155 56.5279C46.9116 60.1014 42.042 62.9434 36.1523 64.982C35.9822 65.042 35.8122 65.0899 35.6301 65.1259C35.3751 65.1739 35.12 65.1979 34.865 65.1979ZM34.865 7.41031C34.6464 7.41031 34.4278 7.49425 34.2457 7.63815L34.2335 7.65014L34.2214 7.66214C31.5862 10.2044 28.7445 12.075 25.5507 13.4181C22.3448 14.7612 18.8595 15.5166 14.8885 15.7325C13.0426 15.8284 11.5854 17.3274 11.5489 19.1501C11.5368 19.8576 11.5247 20.5051 11.4882 21.1287V21.1767C11.3425 28.4916 11.1846 36.7658 14.0263 44.3684C17.293 53.1223 23.9478 59.1181 34.3914 62.7156C34.4521 62.7396 34.525 62.7516 34.5857 62.7636C34.6829 62.7876 34.78 62.7875 34.865 62.7875C34.9622 62.7875 35.0472 62.7756 35.1443 62.7636C35.205 62.7516 35.2779 62.7396 35.3386 62.7156C45.7701 59.1181 52.4249 53.1103 55.6916 44.3684C58.5454 36.7418 58.3754 28.4556 58.2418 21.1407V21.1287C58.2175 20.5171 58.1932 19.8696 58.1811 19.1501C58.1568 17.3274 56.6874 15.8284 54.8537 15.7325C50.8827 15.5166 47.3974 14.7612 44.1914 13.4181C40.9976 12.087 38.1681 10.2044 35.5208 7.66214L35.5086 7.65014L35.4965 7.63815C35.3143 7.48226 35.0836 7.41031 34.865 7.41031Z" fill="#373744"/>
<path d="M34.8883 49.4034C26.6791 49.4034 20 42.808 20 34.7017C20 26.5954 26.6791 20 34.8883 20C43.0975 20 49.7766 26.5954 49.7766 34.7017C49.7766 42.808 43.0975 49.4034 34.8883 49.4034ZM34.8883 22.4103C28.027 22.4103 22.4288 27.9265 22.4288 34.7137C22.4288 41.501 28.0149 47.0171 34.8883 47.0171C41.7495 47.0171 47.3478 41.501 47.3478 34.7137C47.3478 27.9265 41.7495 22.4103 34.8883 22.4103Z" fill="#373744"/>
<path d="M32.12 41.2023C31.7921 41.2023 31.4885 41.0824 31.2578 40.8546L28.0154 37.6528C27.5418 37.1851 27.5418 36.4177 28.0154 35.95C28.2461 35.7222 28.5497 35.6022 28.8776 35.6022C29.2055 35.6022 29.509 35.7222 29.7398 35.95L32.12 38.3004L39.7463 30.7696C39.977 30.5418 40.2806 30.4219 40.6085 30.4219C40.9364 30.4219 41.2399 30.5418 41.4707 30.7696C41.9443 31.2373 41.9443 32.0048 41.4707 32.4724L32.9822 40.8546C32.7514 41.0824 32.4478 41.2023 32.12 41.2023Z" fill="#373744"/>
</svg>
